<svg width="1439" height="146" fill="none" xmlns="http://www.w3.org/2000/svg"><path d="M1181.76 54.608c4 1.893 7.65 3.776 10.93 5.638C1349.73 128.784 2639.02 94.598 2655 49.5l114.5 95.5L.5 129V2.5c18.006 29.978 84.725 74.44 145.547 78.457C222.074 85.978 258.985 62.696 300 40.783 332.812 23.253 415.157 48.478 443 71c107.539 59.957 343.788 59.626 377-30.217 13.315-36.02 80.489-43.134 155.551-36.15 66.059-.66 138.739 14.111 206.209 49.975z" fill="#EAA524"/><path d="M1211.5 80.957c10-40.022-358.288-130.018-391.5-40.174m0 0C786.788 130.626 550.539 130.957 443 71c-27.843-22.522-110.188-47.748-143-30.217-41.015 21.913-77.925 45.195-153.953 40.174C85.225 76.939 18.507 32.478.5 2.5V129l2769 16L2655 49.5c-16.17 45.652-1337.13 80.122-1467.58 8.174C1056.98-14.274 905.698-6.086 820 40.783z" stroke="#000"/></svg>