<svg width="1411" height="298" fill="none" xmlns="http://www.w3.org/2000/svg"><path d="M316 219c-82 19.2-232.5-21-297.5-43.5V163l14-10v-25h-14c-6-4.667-18-20.8-18-48 3.6-11.2 6.167-13 7-12.5 3.667-3.333 11-10.8 11-14 0-4 19.5-12.5 27-12.5h8c16.833 4.667 53.6 16.5 66 26.5 12.4 10 64.167 21.833 88.5 26.5h73c45.833-8.833 144.2-36.9 171-78.5 26.8-41.6 220.833 17.333 314.5 52 123.833 21 381.1 50.4 419.5 0 38.4-50.4 165.33 51 224 108-4.67 45.833-56 133.9-224 119.5-168-14.4-287-65-325.5-88.5L591 194c-57.5.333-193 5.8-275 25z" stroke="#000"/></svg>