<svg xmlns="http://www.w3.org/2000/svg" viewBox="0 0 1300 140"><g data-name="Слой 2"><g data-name="Layer 1"><path d="M33 35.31c42.32-.26 85.31 5.74 128.09 24.83 43.52 18.77 86.41 51 126 87.34C326.77 183.15 363 218 396.45 239.1c33.48 21.71 64.55 30.9 94.19 32.76a184 184 0 0024.75-.1c19.43-1.46 32.23-7.56 42.81-17.31 15.83-14.28 26.62-39.1 45.83-62 9.58-11.26 21.26-21.52 36.36-27.74s33.6-8.15 56.3-5.37c15.12 1.73 32.08 5.38 51.3 8.69a148 148 0 0048.28 0c29.16-4.83 51.79-15.1 69.12-23.44 6.58-3.24 12.4-6.33 17.56-9.15l-.12.42c-7.08 3.87-15.39 8.25-25.17 12.79-16.27 7.45-36.58 15.79-61.52 19.94a148.45 148.45 0 01-48.63.19c-19.15-3.24-36-6.79-51-8.45-30-3.73-52.27 1.24-69.3 12.73-25.66 17.16-39.28 45.1-53.2 64.51-7 9.9-14.13 18.09-23.24 24s-20.21 9.78-35.14 10.9a190.11 190.11 0 01-25.05.15c-30-1.77-61.22-10.93-94.78-32.63C345.75 209 288.54 143.86 224.85 98 162.21 51.81 96.28 34.65 33 35.81z" fill="#ffb01f"/><path d="M51.54 38.92a203.8 203.8 0 0139.66-6.68c54.42-3.15 108.44 12.76 158.05 45.1 50 30.3 92.52 89.53 139.1 116.19 23.14 13.15 48.65 14.54 71.32 9.74 22.45-5.63 41.27-18.49 61.84-30.66 20.41-12.32 43.76-25.14 70.58-31.8 26.69-6.94 55.1-6.58 81-3.4 26.14 2.68 49.83 9 73 8.79 23.5-.33 50.07-9.49 73.11-22.77a299.74 299.74 0 0050.47-36.3c10.91-9.79 16.73-17 20.78-23.69-3.63 6.75-8.92 13.82-19.45 23.56a302.71 302.71 0 01-50.59 37.35c-23.82 14.27-51.77 24.62-76.2 25.7-24.61.85-47.16-4.43-72.88-6.07-25.18-2.14-52-1.52-76.74 5.48-24.89 6.76-46.51 19-66.2 31.35C508.5 193 490 206.33 464.42 214c-25.56 6.68-54 7.58-80.05-5.67-26-12.74-49.31-36.12-72.55-58.39-23.21-22.5-46.5-44.08-70.7-60.1-47.93-32.66-100.54-43-149.19-39.06a154.27 154.27 0 00-40.39 9z" fill="#e9a400"/><path d="M968 104.54c-2.62.59-6 1.51-9.84 2.7 4.29-1.24 7.84-2.24 9.84-2.7zm-968 10V121a409.25 409.25 0 0179.26-5.71c49.45.64 101.94 13.07 153.32 29.77C284.12 161.44 334.06 182 383 191.45c48.48 11.12 99.1 11.37 147.52 3.86 47.69-6.84 93.84-20.38 143.63-23.58 24.65-2.22 47.78-.47 73.4-3 25.16-2.3 51.22-8.05 75.89-15.25 44.13-13.14 105.57-37.3 134.72-46.22-17.84 5.12-49.24 14.68-41.1 11.88-22.32 7.57-50.44 16.2-96.87 29.68-22.68 6.42-47.06 11.66-71.14 13.79-23.68 2.36-48.63.62-74.68 3.15-52.77 3.93-99.34 19.08-145.61 26.2a395.32 395.32 0 01-145.54-2.46c-48.65-10.67-98.36-32.5-150-49.41C181.74 122.77 129 110.44 78.1 109.58A427.64 427.64 0 000 114.59z" fill="#a7ada4"/><path d="M36.4 26.64a147.08 147.08 0 0172.38-16.91C160.23 9.51 210.77 36 260 85.61c49.3 47.58 96.35 118.18 142.5 159.92 23.31 21.07 47 35.31 71.08 39.91 24.14 5 48.36 1.48 67-14.68 19-15.32 33.92-39.56 53.08-64.13 18.69-24.76 44.48-47.36 71.73-52.11 26.87-6.33 53.06 2.46 75.48 2.39 23.21-.23 47.56-11.47 69.37-27.57s40.24-35.49 53.84-51c6.92-7.91 9.59-9.34 14.65-15.84 5.4-6.69-18.26 22.11-18.67 24.33-15.42 16.94-9.58 15.68-55.66 53-24.69 19.45-43.65 29.21-68.34 30.34-12.68.93-22.52.47-34.21-.19-11.78-.86-23.9-.84-35.94 1.81-24.31 4.5-46.91 23.21-65 46-18.49 22.51-33.74 46.31-54.5 62.25-20.5 16.89-48.61 21.46-73.44 16.85-25.4-4.07-49.53-18.17-73.07-39.55-46.42-42.44-93.23-114.87-142-164.13-48.75-51.28-98.53-79.35-149.2-79.83a143.14 143.14 0 00-72.3 16.24z" fill="#c2030e"/><path d="M39 10.31C60.16 3.23 83.46.44 106.26.06c60.49-1.17 117.82 15.76 170.57 53.34C330 90 377.9 144.44 426.24 181.58c24.31 18.56 49.22 32.75 76.71 39.12a139.44 139.44 0 0041.45 3.41c13.53-.56 22.37-5.36 28-11.6 11.11-12.6 14.75-29.82 23.21-49 4.21-9.58 9.28-19.84 17.42-29.57a69.05 69.05 0 0135.5-22.81c31.79-7.89 63.9 1.55 90.45 5.52 25.76 5 53.72 1.26 79.28-9.51a201.6 201.6 0 0055-34.41c8.31-7.52 13.51-13.68 16.39-19.13-2.68 5.35-8.6 13-13.54 18.08-.58.52-24.9 25.45-55 39.13-29.73 13.53-60.49 17.78-86.84 13-25.5-3.66-55.46-11.19-81.7-4.42-26.4 7-39.34 29-47.49 46.77-8.69 18.41-12.44 35.35-24.69 48.64-5.81 6.5-17.7 12.62-34.15 13.37a158 158 0 01-45.5-3.17c-29.21-6.36-54.25-20.75-78.7-39.55-48.46-37.64-95.86-92.6-148.36-129.52C221.58 18 165.14.48 105.76 1.46 83.1 1.78 60 4.6 39 11.72z" fill="#314f92"/><path d="M721.55 359.72zM350.74 84.58c35.69 19.73 68.26 39 98.39 50.72a264.72 264.72 0 0037.28 11.81 249.64 249.64 0 0035.52 5.64q6.26.54 12.41.77 11.42.45 22.44-.05c17.64-.81 29.13-4.2 38.67-9.6 14.24-7.9 23.94-21.63 41.19-34.29a93.83 93.83 0 0132.53-15.28 128.77 128.77 0 0131-3.6q8.88-.08 19 .69c13.49 1 28.72 3 46 4.82a215.66 215.66 0 0043.53 0c7.79-.78 15.07-1.83 21.86-3-6.7 1.21-13.86 2.26-21.51 3a216.3 216.3 0 01-43.58.1c-17.23-1.8-32.42-3.77-46-4.7-6.7-.48-13-.72-18.92-.67a143.24 143.24 0 00-24.48 2.13 97.65 97.65 0 00-19.57 5.63c-23.15 9.51-35.35 24.94-47.86 35.67-6.28 5.48-12.69 10-20.86 13.29s-18.14 5.4-31.42 6q-11 .48-22.33.07-6.15-.23-12.4-.76a245.31 245.31 0 01-35.15-5.55 263.29 263.29 0 01-37.13-11.7C404.41 118.65 353 82.63 295.74 57.25a386.49 386.49 0 00-87.28-27.37 451.86 451.86 0 00-87.95-7.15q-4.1 0-8.1.17-18.88.56-35.41 2.53a260.2 260.2 0 00-35.74 6.71v.24a260.25 260.25 0 0136.27-6.86q16.33-1.95 35-2.5c2.64-.08 5.3-.14 8-.17A447.45 447.45 0 01207.66 30a385.73 385.73 0 0187.14 27.24c57.2 25.34 108.68 61.39 153.75 78.53a262.67 262.67 0 0037.35 11.77 248.2 248.2 0 0035.72 5.61q6.38.54 12.67.77c7.69.29 15.26.25 22.71-.08 13.56-.63 23.56-2.76 31.76-6.05s14.62-7.82 20.91-13.3c12.5-10.73 24.78-26.17 47.75-35.61a95.45 95.45 0 0119.25-5.53 138.73 138.73 0 0123.8-2.08c5.77 0 11.94.18 18.55.66 13.37.91 28.5 2.88 45.69 4.69a217.67 217.67 0 0043.85-.07 317.7 317.7 0 0054.67-10.8l.8-.23c8.81-2.51 16.29-4.93 22.66-7.07l.54-.18v-.12a1.6 1.6 0 00.1-.23l.06-.14-.63.22c-4.62 1.55-9.84 3.25-15.74 5q-4.71 1.41-10 2.89a307.58 307.58 0 01-51.91 10 215.17 215.17 0 01-43.27 0c-17.29-1.84-32.57-3.86-46.26-4.82q-10.3-.77-19.41-.71a132.23 132.23 0 00-31.79 3.69 94.24 94.24 0 00-32.81 15.37c-17.28 12.69-27 26.41-41.17 34.3-9.5 5.4-21 8.77-38.31 9.56-7.27.32-14.61.34-22.06 0q-6-.24-12.14-.76A246.6 246.6 0 01487 147a262.84 262.84 0 01-37.06-11.75c-30-11.68-62.58-30.91-98.24-50.64-35.58-19.9-74.17-38.1-113.31-48.39-39.16-10.52-78.7-14.28-117.7-13.78-2.64 0-5.24.09-7.81.16q-19.17.55-36 2.54a259.85 259.85 0 00-35.65 6.62V32a256.79 256.79 0 0136.17-6.78q16.59-2 35.48-2.51c2.55-.07 5.12-.13 7.73-.16 38.35-.5 77.8 3.2 116.89 13.7 39.07 10.26 77.66 28.43 113.24 48.32z" fill="#c0040e"/></g></g></svg>